<svg xmlns="http://www.w3.org/2000/svg" xmlns:xlink="http://www.w3.org/1999/xlink" id="Ebene_1" x="0" y="0" version="1.1" viewBox="0 0 471.74 408.54" style="enable-background:new 0 0 471.74 408.54" xml:space="preserve"><style type="text/css">.st0{fill:#fff}.st1{fill:#03b2fb}.st2{fill:#fc0579}.st3{fill:#6ac01d}</style><g><path d="M353.8,0H117.93L0,204.27l117.93,204.27H353.8l117.93-204.27L353.8,0z M190.66,19.97h151.61l100.64,174.32 H190.66V19.97z M170.7,388.57h-41.24L23.05,204.27l106.41-184.3h41.24V388.57z M342.27,388.57H190.66V214.25l252.25,0 L342.27,388.57z" class="st0"/><polygon points="170.7 19.97 129.46 19.97 23.05 204.27 129.46 388.57 170.7 388.57" class="st1"/><polygon points="190.66 19.97 190.66 194.28 442.92 194.28 342.27 19.97" class="st2"/><polygon points="190.66 214.25 190.66 388.57 342.27 388.57 442.92 214.25" class="st3"/></g></svg>