<svg xmlns="http://www.w3.org/2000/svg" xmlns:xlink="http://www.w3.org/1999/xlink" id="Ebene_1" x="0" y="0" version="1.1" viewBox="0 0 1024 200" style="enable-background:new 0 0 1024 200" xml:space="preserve"><style type="text/css">.st0{fill:#1b1b1b}.st1{fill:#03b2fb}.st2{fill:#fc0579}.st3{fill:#6ac01d}</style><g><path d="M555.49,47.67h-86.98L425.02,123l43.49,75.33h86.98L598.98,123L555.49,47.67z M495.33,55.03h55.91l37.12,64.29 h-93.03V55.03z M487.97,190.97h-15.21L433.52,123l39.24-67.97h15.21V190.97z M551.24,190.97h-55.91v-64.29l93.03,0L551.24,190.97z" class="st0"/><polygon points="487.97 55.03 472.76 55.03 433.52 123 472.76 190.97 487.97 190.97" class="st1"/><polygon points="495.33 55.03 495.33 119.32 588.36 119.32 551.24 55.03" class="st2"/><polygon points="495.33 126.68 495.33 190.97 551.24 190.97 588.36 126.68" class="st3"/></g></svg>